<svg width="200" height="200" viewBox="0 0 200 200" fill="none" xmlns="http://www.w3.org/2000/svg">
<path d="M84.5663 46.7711H145.771L125.88 33" stroke="#FF0000"/>
<path d="M84.5663 146.229H145.771L125.88 160" stroke="#FF0000"/>
<path d="M11.0586 46.4818C11.0586 47.7513 10.8418 48.6947 10.4082 49.3119C9.97461 49.9291 9.29688 50.2377 8.375 50.2377C7.46484 50.2377 6.79102 49.9369 6.35352 49.3353C5.91602 48.7299 5.68945 47.8275 5.67383 46.6283V45.181C5.67383 43.9271 5.89062 42.9955 6.32422 42.3861C6.75781 41.7767 7.4375 41.472 8.36328 41.472C9.28125 41.472 9.95703 41.767 10.3906 42.3568C10.8242 42.9427 11.0469 43.849 11.0586 45.0756V46.4818ZM9.97461 44.9994C9.97461 44.0814 9.8457 43.4135 9.58789 42.9955C9.33008 42.5736 8.92188 42.3627 8.36328 42.3627C7.80859 42.3627 7.4043 42.5717 7.15039 42.9896C6.89648 43.4076 6.76562 44.0502 6.75781 44.9174V46.6517C6.75781 47.5736 6.89062 48.2552 7.15625 48.6967C7.42578 49.1342 7.83203 49.3529 8.375 49.3529C8.91016 49.3529 9.30664 49.1459 9.56445 48.7318C9.82617 48.3177 9.96289 47.6654 9.97461 46.7748V44.9994ZM16.0098 50.1205H14.9199V42.8959L12.7344 43.6986V42.7142L15.8398 41.5482H16.0098V50.1205ZM24.5352 46.4818C24.5352 47.7513 24.3184 48.6947 23.8848 49.3119C23.4512 49.9291 22.7734 50.2377 21.8516 50.2377C20.9414 50.2377 20.2676 49.9369 19.8301 49.3353C19.3926 48.7299 19.166 47.8275 19.1504 46.6283V45.181C19.1504 43.9271 19.3672 42.9955 19.8008 42.3861C20.2344 41.7767 20.9141 41.472 21.8398 41.472C22.7578 41.472 23.4336 41.767 23.8672 42.3568C24.3008 42.9427 24.5234 43.849 24.5352 45.0756V46.4818ZM23.4512 44.9994C23.4512 44.0814 23.3223 43.4135 23.0645 42.9955C22.8066 42.5736 22.3984 42.3627 21.8398 42.3627C21.2852 42.3627 20.8809 42.5717 20.627 42.9896C20.373 43.4076 20.2422 44.0502 20.2344 44.9174V46.6517C20.2344 47.5736 20.3672 48.2552 20.6328 48.6967C20.9023 49.1342 21.3086 49.3529 21.8516 49.3529C22.3867 49.3529 22.7832 49.1459 23.041 48.7318C23.3027 48.3177 23.4395 47.6654 23.4512 46.7748V44.9994ZM31.2734 46.4818C31.2734 47.7513 31.0566 48.6947 30.623 49.3119C30.1895 49.9291 29.5117 50.2377 28.5898 50.2377C27.6797 50.2377 27.0059 49.9369 26.5684 49.3353C26.1309 48.7299 25.9043 47.8275 25.8887 46.6283V45.181C25.8887 43.9271 26.1055 42.9955 26.5391 42.3861C26.9727 41.7767 27.6523 41.472 28.5781 41.472C29.4961 41.472 30.1719 41.767 30.6055 42.3568C31.0391 42.9427 31.2617 43.849 31.2734 45.0756V46.4818ZM30.1895 44.9994C30.1895 44.0814 30.0605 43.4135 29.8027 42.9955C29.5449 42.5736 29.1367 42.3627 28.5781 42.3627C28.0234 42.3627 27.6191 42.5717 27.3652 42.9896C27.1113 43.4076 26.9805 44.0502 26.9727 44.9174V46.6517C26.9727 47.5736 27.1055 48.2552 27.3711 48.6967C27.6406 49.1342 28.0469 49.3529 28.5898 49.3529C29.125 49.3529 29.5215 49.1459 29.7793 48.7318C30.041 48.3177 30.1777 47.6654 30.1895 46.7748V44.9994ZM36.2246 50.1205H35.1348V42.8959L32.9492 43.6986V42.7142L36.0547 41.5482H36.2246V50.1205ZM44.75 46.4818C44.75 47.7513 44.5332 48.6947 44.0996 49.3119C43.666 49.9291 42.9883 50.2377 42.0664 50.2377C41.1562 50.2377 40.4824 49.9369 40.0449 49.3353C39.6074 48.7299 39.3809 47.8275 39.3652 46.6283V45.181C39.3652 43.9271 39.582 42.9955 40.0156 42.3861C40.4492 41.7767 41.1289 41.472 42.0547 41.472C42.9727 41.472 43.6484 41.767 44.082 42.3568C44.5156 42.9427 44.7383 43.849 44.75 45.0756V46.4818ZM43.666 44.9994C43.666 44.0814 43.5371 43.4135 43.2793 42.9955C43.0215 42.5736 42.6133 42.3627 42.0547 42.3627C41.5 42.3627 41.0957 42.5717 40.8418 42.9896C40.5879 43.4076 40.457 44.0502 40.4492 44.9174V46.6517C40.4492 47.5736 40.582 48.2552 40.8477 48.6967C41.1172 49.1342 41.5234 49.3529 42.0664 49.3529C42.6016 49.3529 42.998 49.1459 43.2559 48.7318C43.5176 48.3177 43.6543 47.6654 43.666 46.7748V44.9994ZM49.7012 50.1205H48.6113V42.8959L46.4258 43.6986V42.7142L49.5312 41.5482H49.7012V50.1205Z" fill="#DBFF00"/>
<path d="M11.0586 80.1445C11.0586 81.414 10.8418 82.3573 10.4082 82.9745C9.97461 83.5917 9.29688 83.9003 8.375 83.9003C7.46484 83.9003 6.79102 83.5995 6.35352 82.998C5.91602 82.3925 5.68945 81.4902 5.67383 80.2909V78.8437C5.67383 77.5898 5.89062 76.6581 6.32422 76.0488C6.75781 75.4394 7.4375 75.1347 8.36328 75.1347C9.28125 75.1347 9.95703 75.4296 10.3906 76.0195C10.8242 76.6054 11.0469 77.5116 11.0586 78.7382V80.1445ZM9.97461 78.662C9.97461 77.7441 9.8457 77.0761 9.58789 76.6581C9.33008 76.2363 8.92188 76.0253 8.36328 76.0253C7.80859 76.0253 7.4043 76.2343 7.15039 76.6523C6.89648 77.0702 6.76562 77.7128 6.75781 78.58V80.3144C6.75781 81.2363 6.89062 81.9179 7.15625 82.3593C7.42578 82.7968 7.83203 83.0155 8.375 83.0155C8.91016 83.0155 9.30664 82.8085 9.56445 82.3945C9.82617 81.9804 9.96289 81.328 9.97461 80.4374V78.662ZM16.0098 83.7831H14.9199V76.5585L12.7344 77.3613V76.3769L15.8398 75.2109H16.0098V83.7831ZM24.5352 80.1445C24.5352 81.414 24.3184 82.3573 23.8848 82.9745C23.4512 83.5917 22.7734 83.9003 21.8516 83.9003C20.9414 83.9003 20.2676 83.5995 19.8301 82.998C19.3926 82.3925 19.166 81.4902 19.1504 80.2909V78.8437C19.1504 77.5898 19.3672 76.6581 19.8008 76.0488C20.2344 75.4394 20.9141 75.1347 21.8398 75.1347C22.7578 75.1347 23.4336 75.4296 23.8672 76.0195C24.3008 76.6054 24.5234 77.5116 24.5352 78.7382V80.1445ZM23.4512 78.662C23.4512 77.7441 23.3223 77.0761 23.0645 76.6581C22.8066 76.2363 22.3984 76.0253 21.8398 76.0253C21.2852 76.0253 20.8809 76.2343 20.627 76.6523C20.373 77.0702 20.2422 77.7128 20.2344 78.58V80.3144C20.2344 81.2363 20.3672 81.9179 20.6328 82.3593C20.9023 82.7968 21.3086 83.0155 21.8516 83.0155C22.3867 83.0155 22.7832 82.8085 23.041 82.3945C23.3027 81.9804 23.4395 81.328 23.4512 80.4374V78.662ZM31.2734 80.1445C31.2734 81.414 31.0566 82.3573 30.623 82.9745C30.1895 83.5917 29.5117 83.9003 28.5898 83.9003C27.6797 83.9003 27.0059 83.5995 26.5684 82.998C26.1309 82.3925 25.9043 81.4902 25.8887 80.2909V78.8437C25.8887 77.5898 26.1055 76.6581 26.5391 76.0488C26.9727 75.4394 27.6523 75.1347 28.5781 75.1347C29.4961 75.1347 30.1719 75.4296 30.6055 76.0195C31.0391 76.6054 31.2617 77.5116 31.2734 78.7382V80.1445ZM30.1895 78.662C30.1895 77.7441 30.0605 77.0761 29.8027 76.6581C29.5449 76.2363 29.1367 76.0253 28.5781 76.0253C28.0234 76.0253 27.6191 76.2343 27.3652 76.6523C27.1113 77.0702 26.9805 77.7128 26.9727 78.58V80.3144C26.9727 81.2363 27.1055 81.9179 27.3711 82.3593C27.6406 82.7968 28.0469 83.0155 28.5898 83.0155C29.125 83.0155 29.5215 82.8085 29.7793 82.3945C30.041 81.9804 30.1777 81.328 30.1895 80.4374V78.662ZM36.2246 83.7831H35.1348V76.5585L32.9492 77.3613V76.3769L36.0547 75.2109H36.2246V83.7831ZM44.75 80.1445C44.75 81.414 44.5332 82.3573 44.0996 82.9745C43.666 83.5917 42.9883 83.9003 42.0664 83.9003C41.1562 83.9003 40.4824 83.5995 40.0449 82.998C39.6074 82.3925 39.3809 81.4902 39.3652 80.2909V78.8437C39.3652 77.5898 39.582 76.6581 40.0156 76.0488C40.4492 75.4394 41.1289 75.1347 42.0547 75.1347C42.9727 75.1347 43.6484 75.4296 44.082 76.0195C44.5156 76.6054 44.7383 77.5116 44.75 78.7382V80.1445ZM43.666 78.662C43.666 77.7441 43.5371 77.0761 43.2793 76.6581C43.0215 76.2363 42.6133 76.0253 42.0547 76.0253C41.5 76.0253 41.0957 76.2343 40.8418 76.6523C40.5879 77.0702 40.457 77.7128 40.4492 78.58V80.3144C40.4492 81.2363 40.582 81.9179 40.8477 82.3593C41.1172 82.7968 41.5234 83.0155 42.0664 83.0155C42.6016 83.0155 42.998 82.8085 43.2559 82.3945C43.5176 81.9804 43.6543 81.328 43.666 80.4374V78.662ZM49.7012 83.7831H48.6113V76.5585L46.4258 77.3613V76.3769L49.5312 75.2109H49.7012V83.7831Z" fill="#FA00FF"/>
<path d="M11.0586 113.807C11.0586 115.077 10.8418 116.02 10.4082 116.637C9.97461 117.254 9.29688 117.563 8.375 117.563C7.46484 117.563 6.79102 117.262 6.35352 116.661C5.91602 116.055 5.68945 115.153 5.67383 113.954V112.506C5.67383 111.252 5.89062 110.321 6.32422 109.711C6.75781 109.102 7.4375 108.797 8.36328 108.797C9.28125 108.797 9.95703 109.092 10.3906 109.682C10.8242 110.268 11.0469 111.174 11.0586 112.401V113.807ZM9.97461 112.325C9.97461 111.407 9.8457 110.739 9.58789 110.321C9.33008 109.899 8.92188 109.688 8.36328 109.688C7.80859 109.688 7.4043 109.897 7.15039 110.315C6.89648 110.733 6.76562 111.375 6.75781 112.243V113.977C6.75781 114.899 6.89062 115.581 7.15625 116.022C7.42578 116.459 7.83203 116.678 8.375 116.678C8.91016 116.678 9.30664 116.471 9.56445 116.057C9.82617 115.643 9.96289 114.991 9.97461 114.1V112.325ZM16.0098 117.446H14.9199V110.221L12.7344 111.024V110.04L15.8398 108.874H16.0098V117.446ZM24.5352 113.807C24.5352 115.077 24.3184 116.02 23.8848 116.637C23.4512 117.254 22.7734 117.563 21.8516 117.563C20.9414 117.563 20.2676 117.262 19.8301 116.661C19.3926 116.055 19.166 115.153 19.1504 113.954V112.506C19.1504 111.252 19.3672 110.321 19.8008 109.711C20.2344 109.102 20.9141 108.797 21.8398 108.797C22.7578 108.797 23.4336 109.092 23.8672 109.682C24.3008 110.268 24.5234 111.174 24.5352 112.401V113.807ZM23.4512 112.325C23.4512 111.407 23.3223 110.739 23.0645 110.321C22.8066 109.899 22.3984 109.688 21.8398 109.688C21.2852 109.688 20.8809 109.897 20.627 110.315C20.373 110.733 20.2422 111.375 20.2344 112.243V113.977C20.2344 114.899 20.3672 115.581 20.6328 116.022C20.9023 116.459 21.3086 116.678 21.8516 116.678C22.3867 116.678 22.7832 116.471 23.041 116.057C23.3027 115.643 23.4395 114.991 23.4512 114.1V112.325ZM31.2734 113.807C31.2734 115.077 31.0566 116.02 30.623 116.637C30.1895 117.254 29.5117 117.563 28.5898 117.563C27.6797 117.563 27.0059 117.262 26.5684 116.661C26.1309 116.055 25.9043 115.153 25.8887 113.954V112.506C25.8887 111.252 26.1055 110.321 26.5391 109.711C26.9727 109.102 27.6523 108.797 28.5781 108.797C29.4961 108.797 30.1719 109.092 30.6055 109.682C31.0391 110.268 31.2617 111.174 31.2734 112.401V113.807ZM30.1895 112.325C30.1895 111.407 30.0605 110.739 29.8027 110.321C29.5449 109.899 29.1367 109.688 28.5781 109.688C28.0234 109.688 27.6191 109.897 27.3652 110.315C27.1113 110.733 26.9805 111.375 26.9727 112.243V113.977C26.9727 114.899 27.1055 115.581 27.3711 116.022C27.6406 116.459 28.0469 116.678 28.5898 116.678C29.125 116.678 29.5215 116.471 29.7793 116.057C30.041 115.643 30.1777 114.991 30.1895 114.1V112.325ZM36.2246 117.446H35.1348V110.221L32.9492 111.024V110.04L36.0547 108.874H36.2246V117.446ZM44.75 113.807C44.75 115.077 44.5332 116.02 44.0996 116.637C43.666 117.254 42.9883 117.563 42.0664 117.563C41.1562 117.563 40.4824 117.262 40.0449 116.661C39.6074 116.055 39.3809 115.153 39.3652 113.954V112.506C39.3652 111.252 39.582 110.321 40.0156 109.711C40.4492 109.102 41.1289 108.797 42.0547 108.797C42.9727 108.797 43.6484 109.092 44.082 109.682C44.5156 110.268 44.7383 111.174 44.75 112.401V113.807ZM43.666 112.325C43.666 111.407 43.5371 110.739 43.2793 110.321C43.0215 109.899 42.6133 109.688 42.0547 109.688C41.5 109.688 41.0957 109.897 40.8418 110.315C40.5879 110.733 40.457 111.375 40.4492 112.243V113.977C40.4492 114.899 40.582 115.581 40.8477 116.022C41.1172 116.459 41.5234 116.678 42.0664 116.678C42.6016 116.678 42.998 116.471 43.2559 116.057C43.5176 115.643 43.6543 114.991 43.666 114.1V112.325ZM49.7012 117.446H48.6113V110.221L46.4258 111.024V110.04L49.5312 108.874H49.7012V117.446Z" fill="#FF0000"/>
<path d="M11.0586 147.47C11.0586 148.739 10.8418 149.683 10.4082 150.3C9.97461 150.917 9.29688 151.226 8.375 151.226C7.46484 151.226 6.79102 150.925 6.35352 150.323C5.91602 149.718 5.68945 148.815 5.67383 147.616V146.169C5.67383 144.915 5.89062 143.983 6.32422 143.374C6.75781 142.765 7.4375 142.46 8.36328 142.46C9.28125 142.46 9.95703 142.755 10.3906 143.345C10.8242 143.931 11.0469 144.837 11.0586 146.064V147.47ZM9.97461 145.987C9.97461 145.069 9.8457 144.401 9.58789 143.983C9.33008 143.562 8.92188 143.351 8.36328 143.351C7.80859 143.351 7.4043 143.56 7.15039 143.978C6.89648 144.396 6.76562 145.038 6.75781 145.905V147.64C6.75781 148.562 6.89062 149.243 7.15625 149.685C7.42578 150.122 7.83203 150.341 8.375 150.341C8.91016 150.341 9.30664 150.134 9.56445 149.72C9.82617 149.306 9.96289 148.653 9.97461 147.763V145.987ZM16.0098 151.108H14.9199V143.884L12.7344 144.687V143.702L15.8398 142.536H16.0098V151.108ZM24.5352 147.47C24.5352 148.739 24.3184 149.683 23.8848 150.3C23.4512 150.917 22.7734 151.226 21.8516 151.226C20.9414 151.226 20.2676 150.925 19.8301 150.323C19.3926 149.718 19.166 148.815 19.1504 147.616V146.169C19.1504 144.915 19.3672 143.983 19.8008 143.374C20.2344 142.765 20.9141 142.46 21.8398 142.46C22.7578 142.46 23.4336 142.755 23.8672 143.345C24.3008 143.931 24.5234 144.837 24.5352 146.064V147.47ZM23.4512 145.987C23.4512 145.069 23.3223 144.401 23.0645 143.983C22.8066 143.562 22.3984 143.351 21.8398 143.351C21.2852 143.351 20.8809 143.56 20.627 143.978C20.373 144.396 20.2422 145.038 20.2344 145.905V147.64C20.2344 148.562 20.3672 149.243 20.6328 149.685C20.9023 150.122 21.3086 150.341 21.8516 150.341C22.3867 150.341 22.7832 150.134 23.041 149.72C23.3027 149.306 23.4395 148.653 23.4512 147.763V145.987ZM31.2734 147.47C31.2734 148.739 31.0566 149.683 30.623 150.3C30.1895 150.917 29.5117 151.226 28.5898 151.226C27.6797 151.226 27.0059 150.925 26.5684 150.323C26.1309 149.718 25.9043 148.815 25.8887 147.616V146.169C25.8887 144.915 26.1055 143.983 26.5391 143.374C26.9727 142.765 27.6523 142.46 28.5781 142.46C29.4961 142.46 30.1719 142.755 30.6055 143.345C31.0391 143.931 31.2617 144.837 31.2734 146.064V147.47ZM30.1895 145.987C30.1895 145.069 30.0605 144.401 29.8027 143.983C29.5449 143.562 29.1367 143.351 28.5781 143.351C28.0234 143.351 27.6191 143.56 27.3652 143.978C27.1113 144.396 26.9805 145.038 26.9727 145.905V147.64C26.9727 148.562 27.1055 149.243 27.3711 149.685C27.6406 150.122 28.0469 150.341 28.5898 150.341C29.125 150.341 29.5215 150.134 29.7793 149.72C30.041 149.306 30.1777 148.653 30.1895 147.763V145.987ZM36.2246 151.108H35.1348V143.884L32.9492 144.687V143.702L36.0547 142.536H36.2246V151.108ZM44.75 147.47C44.75 148.739 44.5332 149.683 44.0996 150.3C43.666 150.917 42.9883 151.226 42.0664 151.226C41.1562 151.226 40.4824 150.925 40.0449 150.323C39.6074 149.718 39.3809 148.815 39.3652 147.616V146.169C39.3652 144.915 39.582 143.983 40.0156 143.374C40.4492 142.765 41.1289 142.46 42.0547 142.46C42.9727 142.46 43.6484 142.755 44.082 143.345C44.5156 143.931 44.7383 144.837 44.75 146.064V147.47ZM43.666 145.987C43.666 145.069 43.5371 144.401 43.2793 143.983C43.0215 143.562 42.6133 143.351 42.0547 143.351C41.5 143.351 41.0957 143.56 40.8418 143.978C40.5879 144.396 40.457 145.038 40.4492 145.905V147.64C40.4492 148.562 40.582 149.243 40.8477 149.685C41.1172 150.122 41.5234 150.341 42.0664 150.341C42.6016 150.341 42.998 150.134 43.2559 149.72C43.5176 149.306 43.6543 148.653 43.666 147.763V145.987ZM49.7012 151.108H48.6113V143.884L46.4258 144.687V143.702L49.5312 142.536H49.7012V151.108Z" fill="#42FF00"/>
<path d="M86.3817 90.7229V75.0823H91.495C93.1922 75.0823 94.467 75.4332 95.3192 76.135C96.1786 76.8368 96.6082 77.8752 96.6082 79.2502C96.6082 79.9807 96.4006 80.6288 95.9852 81.1946C95.5698 81.7532 95.0041 82.1864 94.2879 82.4944C95.133 82.7307 95.799 83.1819 96.286 83.8479C96.7801 84.5067 97.0272 85.2945 97.0272 86.2112C97.0272 87.6148 96.5724 88.7177 95.6629 89.5198C94.7534 90.3219 93.4679 90.7229 91.8065 90.7229H86.3817ZM88.4442 83.4075V89.0364H91.8495C92.8091 89.0364 93.5646 88.7893 94.1161 88.2952C94.6747 87.7939 94.9539 87.1064 94.9539 86.2327C94.9539 84.3492 93.9299 83.4075 91.8817 83.4075H88.4442ZM88.4442 81.7532H91.5594C92.4618 81.7532 93.1815 81.5276 93.7186 81.0764C94.2629 80.6252 94.535 80.0129 94.535 79.2395C94.535 78.3801 94.2844 77.7571 93.7831 77.3704C93.2817 76.9765 92.5191 76.7795 91.495 76.7795H88.4442V81.7532ZM101.936 90.7229H99.9491V79.0998H101.936V90.7229ZM99.7879 76.0168C99.7879 75.6946 99.8846 75.4224 100.078 75.2004C100.278 74.9784 100.572 74.8674 100.959 74.8674C101.346 74.8674 101.639 74.9784 101.84 75.2004C102.04 75.4224 102.14 75.6946 102.14 76.0168C102.14 76.3391 102.04 76.6077 101.84 76.8225C101.639 77.0373 101.346 77.1448 100.959 77.1448C100.572 77.1448 100.278 77.0373 100.078 76.8225C99.8846 76.6077 99.7879 76.3391 99.7879 76.0168ZM107.007 79.0998L107.071 80.5608C107.959 79.4436 109.119 78.885 110.552 78.885C113.008 78.885 114.247 80.2707 114.268 83.0422V90.7229H112.281V83.0315C112.274 82.1936 112.081 81.5741 111.701 81.1731C111.329 80.772 110.745 80.5715 109.95 80.5715C109.306 80.5715 108.74 80.7434 108.253 81.0872C107.766 81.4309 107.386 81.8821 107.114 82.4407V90.7229H105.127V79.0998H107.007ZM124.441 90.7229C124.327 90.4937 124.234 90.0855 124.162 89.4983C123.238 90.4579 122.135 90.9377 120.853 90.9377C119.708 90.9377 118.766 90.6155 118.028 89.9709C117.298 89.3192 116.932 88.4957 116.932 87.5002C116.932 86.29 117.391 85.3518 118.307 84.6858C119.231 84.0126 120.528 83.676 122.196 83.676H124.13V82.7629C124.13 82.0683 123.922 81.5168 123.507 81.1086C123.091 80.6933 122.479 80.4856 121.67 80.4856C120.961 80.4856 120.366 80.6646 119.887 81.0227C119.407 81.3808 119.167 81.814 119.167 82.3225H117.169C117.169 81.7424 117.373 81.1838 117.781 80.6467C118.196 80.1025 118.755 79.6728 119.457 79.3577C120.166 79.0426 120.943 78.885 121.788 78.885C123.127 78.885 124.176 79.2216 124.935 79.8948C125.695 80.5608 126.088 81.481 126.117 82.6555V88.0051C126.117 89.0722 126.253 89.9208 126.525 90.551V90.7229H124.441ZM121.143 89.2082C121.766 89.2082 122.357 89.0471 122.916 88.7248C123.474 88.4026 123.879 87.9836 124.13 87.468V85.0832H122.572C120.137 85.0832 118.92 85.7958 118.92 87.2209C118.92 87.844 119.127 88.331 119.543 88.6819C119.958 89.0328 120.492 89.2082 121.143 89.2082ZM134.85 80.883C134.55 80.8329 134.224 80.8079 133.873 80.8079C132.57 80.8079 131.685 81.3629 131.22 82.4729V90.7229H129.232V79.0998H131.166L131.198 80.4426C131.85 79.4042 132.774 78.885 133.97 78.885C134.356 78.885 134.65 78.9351 134.85 79.0354V80.883ZM140.683 87.8118L143.39 79.0998H145.517L140.845 92.5168C140.121 94.4504 138.972 95.4172 137.396 95.4172L137.02 95.385L136.279 95.2454V93.634L136.816 93.677C137.489 93.677 138.012 93.5409 138.385 93.2688C138.764 92.9967 139.076 92.4989 139.319 91.7756L139.76 90.594L135.613 79.0998H137.783L140.683 87.8118Z" fill="#122AFF"/>
<path d="M91.8319 102.016C91.7264 102.918 91.3924 103.615 90.8299 104.108C90.2713 104.596 89.5272 104.84 88.5975 104.84C87.5897 104.84 86.7811 104.479 86.1717 103.756C85.5663 103.033 85.2635 102.067 85.2635 100.856V100.035C85.2635 99.2424 85.4041 98.5452 85.6854 97.9436C85.9706 97.342 86.3729 96.8811 86.8924 96.5608C87.412 96.2366 88.0135 96.0745 88.6971 96.0745C89.6034 96.0745 90.3299 96.3284 90.8768 96.8362C91.4237 97.3401 91.742 98.0393 91.8319 98.9338H90.701C90.6034 98.2541 90.3905 97.762 90.0623 97.4573C89.7381 97.1526 89.2831 97.0002 88.6971 97.0002C87.9784 97.0002 87.4139 97.2659 87.0038 97.7971C86.5975 98.3284 86.3944 99.0842 86.3944 100.065V100.891C86.3944 101.817 86.5877 102.553 86.9745 103.1C87.3612 103.647 87.9022 103.92 88.5975 103.92C89.2225 103.92 89.701 103.78 90.0331 103.498C90.369 103.213 90.5916 102.719 90.701 102.016H91.8319ZM92.9159 101.494C92.9159 100.873 93.037 100.315 93.2791 99.8186C93.5252 99.3225 93.8651 98.9397 94.2987 98.6702C94.7362 98.4006 95.2342 98.2659 95.7928 98.2659C96.6561 98.2659 97.3534 98.5647 97.8846 99.1623C98.4198 99.76 98.6873 100.555 98.6873 101.547V101.623C98.6873 102.24 98.5682 102.795 98.3299 103.287C98.0956 103.776 97.7577 104.156 97.3163 104.43C96.8788 104.703 96.3748 104.84 95.8045 104.84C94.9452 104.84 94.2479 104.541 93.7127 103.944C93.1815 103.346 92.9159 102.555 92.9159 101.571V101.494ZM94.0057 101.623C94.0057 102.326 94.1678 102.891 94.492 103.317C94.8202 103.742 95.2577 103.955 95.8045 103.955C96.3553 103.955 96.7928 103.74 97.117 103.311C97.4413 102.877 97.6034 102.272 97.6034 101.494C97.6034 100.799 97.4373 100.237 97.1053 99.8069C96.7772 99.3733 96.3397 99.1565 95.7928 99.1565C95.2577 99.1565 94.826 99.3694 94.4979 99.7952C94.1698 100.221 94.0057 100.83 94.0057 101.623ZM101.072 98.383L101.107 99.1799C101.592 98.5705 102.224 98.2659 103.006 98.2659C104.346 98.2659 105.021 99.0217 105.033 100.533V104.723H103.949V100.528C103.945 100.071 103.84 99.7327 103.633 99.5139C103.43 99.2952 103.111 99.1858 102.678 99.1858C102.326 99.1858 102.017 99.2795 101.752 99.467C101.486 99.6545 101.279 99.9006 101.131 100.205V104.723H100.047V98.383H101.072ZM108.76 103.252L110.33 98.383H111.437L109.164 104.723H108.338L106.041 98.383H107.148L108.76 103.252ZM115.029 104.84C114.17 104.84 113.471 104.559 112.931 103.996C112.392 103.43 112.123 102.674 112.123 101.729V101.53C112.123 100.901 112.242 100.34 112.48 99.8479C112.723 99.3518 113.058 98.9651 113.488 98.6877C113.922 98.4065 114.39 98.2659 114.894 98.2659C115.719 98.2659 116.359 98.5373 116.816 99.0803C117.273 99.6233 117.502 100.401 117.502 101.412V101.864H113.207C113.223 102.489 113.404 102.994 113.752 103.381C114.103 103.764 114.549 103.955 115.088 103.955C115.471 103.955 115.795 103.877 116.06 103.721C116.326 103.565 116.558 103.358 116.758 103.1L117.42 103.615C116.889 104.432 116.092 104.84 115.029 104.84ZM114.894 99.1565C114.457 99.1565 114.09 99.3166 113.793 99.637C113.496 99.9534 113.312 100.399 113.242 100.973H116.418V100.891C116.387 100.34 116.238 99.9143 115.973 99.6135C115.707 99.3088 115.348 99.1565 114.894 99.1565ZM121.826 99.3557C121.662 99.3284 121.484 99.3147 121.293 99.3147C120.582 99.3147 120.099 99.6174 119.846 100.223V104.723H118.762V98.383H119.816L119.834 99.1155C120.189 98.5491 120.693 98.2659 121.346 98.2659C121.556 98.2659 121.717 98.2932 121.826 98.3479V99.3557ZM126.519 103.041C126.519 102.748 126.408 102.522 126.185 102.362C125.967 102.198 125.582 102.057 125.031 101.94C124.484 101.823 124.049 101.682 123.724 101.518C123.404 101.354 123.166 101.158 123.01 100.932C122.857 100.705 122.781 100.436 122.781 100.123C122.781 99.6038 123 99.1643 123.437 98.8049C123.879 98.4455 124.441 98.2659 125.125 98.2659C125.844 98.2659 126.426 98.4514 126.871 98.8225C127.32 99.1936 127.545 99.6682 127.545 100.246H126.455C126.455 99.9495 126.328 99.6936 126.074 99.4788C125.824 99.2639 125.508 99.1565 125.125 99.1565C124.73 99.1565 124.422 99.2424 124.199 99.4143C123.976 99.5862 123.865 99.8108 123.865 100.088C123.865 100.35 123.969 100.547 124.176 100.68C124.383 100.813 124.756 100.94 125.295 101.061C125.838 101.182 126.277 101.326 126.613 101.494C126.949 101.662 127.197 101.865 127.357 102.104C127.521 102.338 127.603 102.625 127.603 102.965C127.603 103.531 127.377 103.987 126.924 104.33C126.471 104.67 125.883 104.84 125.16 104.84C124.652 104.84 124.203 104.75 123.812 104.571C123.422 104.391 123.115 104.141 122.892 103.821C122.674 103.496 122.564 103.147 122.564 102.772H123.648C123.668 103.135 123.812 103.424 124.082 103.639C124.355 103.85 124.715 103.955 125.16 103.955C125.57 103.955 125.898 103.873 126.144 103.709C126.394 103.541 126.519 103.319 126.519 103.041ZM128.728 101.494C128.728 100.873 128.849 100.315 129.092 99.8186C129.338 99.3225 129.678 98.9397 130.111 98.6702C130.549 98.4006 131.047 98.2659 131.605 98.2659C132.469 98.2659 133.166 98.5647 133.697 99.1623C134.232 99.76 134.5 100.555 134.5 101.547V101.623C134.5 102.24 134.381 102.795 134.142 103.287C133.908 103.776 133.57 104.156 133.129 104.43C132.691 104.703 132.187 104.84 131.617 104.84C130.758 104.84 130.06 104.541 129.525 103.944C128.994 103.346 128.728 102.555 128.728 101.571V101.494ZM129.818 101.623C129.818 102.326 129.98 102.891 130.305 103.317C130.633 103.742 131.07 103.955 131.617 103.955C132.168 103.955 132.605 103.74 132.93 103.311C133.254 102.877 133.416 102.272 133.416 101.494C133.416 100.799 133.25 100.237 132.918 99.8069C132.59 99.3733 132.152 99.1565 131.605 99.1565C131.07 99.1565 130.639 99.3694 130.31 99.7952C129.982 100.221 129.818 100.83 129.818 101.623ZM138.924 99.3557C138.76 99.3284 138.582 99.3147 138.39 99.3147C137.68 99.3147 137.197 99.6174 136.943 100.223V104.723H135.859V98.383H136.914L136.931 99.1155C137.287 98.5491 137.791 98.2659 138.443 98.2659C138.654 98.2659 138.814 98.2932 138.924 98.3479V99.3557Z" fill="url(#paint0_radial)"/>
<path d="M185.651 39.1384L182.117 47.0602H180.981L184.502 39.4196H179.885V38.529H185.651V39.1384ZM191.135 38.5231V39.4431H190.936C190.092 39.4587 189.42 39.7087 188.92 40.1931C188.42 40.6774 188.131 41.3591 188.053 42.238C188.502 41.7224 189.115 41.4645 189.893 41.4645C190.635 41.4645 191.227 41.7263 191.668 42.2497C192.113 42.7731 192.336 43.4489 192.336 44.277C192.336 45.1559 192.096 45.8591 191.615 46.3864C191.139 46.9138 190.498 47.1774 189.693 47.1774C188.877 47.1774 188.215 46.8649 187.707 46.2399C187.199 45.611 186.945 44.8024 186.945 43.8141V43.3981C186.945 41.8278 187.279 40.6286 187.947 39.8005C188.619 38.9684 189.617 38.5427 190.942 38.5231H191.135ZM189.711 42.3669C189.34 42.3669 188.998 42.4782 188.686 42.7009C188.373 42.9235 188.156 43.2028 188.035 43.5388V43.9372C188.035 44.6403 188.193 45.2067 188.51 45.6364C188.826 46.0661 189.221 46.2809 189.693 46.2809C190.182 46.2809 190.565 46.1013 190.842 45.7419C191.123 45.3825 191.264 44.9118 191.264 44.3298C191.264 43.7438 191.121 43.2712 190.836 42.9118C190.555 42.5485 190.18 42.3669 189.711 42.3669Z" fill="#FF0000"/>
<path d="M185.651 73.1384L182.117 81.0602H180.981L184.502 73.4196H179.885V72.529H185.651V73.1384ZM191.035 77.3102C190.809 77.5798 190.537 77.7966 190.221 77.9606C189.908 78.1247 189.565 78.2067 189.19 78.2067C188.697 78.2067 188.268 78.0856 187.901 77.8434C187.537 77.6013 187.256 77.2614 187.057 76.8239C186.858 76.3825 186.758 75.8962 186.758 75.3649C186.758 74.7946 186.865 74.2809 187.08 73.8239C187.299 73.3669 187.608 73.0173 188.006 72.7751C188.404 72.5329 188.869 72.4118 189.401 72.4118C190.244 72.4118 190.908 72.7282 191.393 73.361C191.881 73.9899 192.125 74.8493 192.125 75.9391V76.2556C192.125 77.9157 191.797 79.1286 191.141 79.8942C190.484 80.6559 189.494 81.0466 188.17 81.0661H187.959V80.152H188.188C189.082 80.1364 189.77 79.904 190.25 79.4548C190.731 79.0016 190.992 78.2868 191.035 77.3102ZM189.365 77.3102C189.729 77.3102 190.063 77.1989 190.367 76.9763C190.676 76.7536 190.901 76.4782 191.041 76.1501V75.7165C191.041 75.0056 190.887 74.4274 190.578 73.9821C190.27 73.5368 189.879 73.3141 189.406 73.3141C188.93 73.3141 188.547 73.4977 188.258 73.8649C187.969 74.2282 187.824 74.7087 187.824 75.3063C187.824 75.8884 187.963 76.3688 188.24 76.7477C188.522 77.1227 188.897 77.3102 189.365 77.3102Z" fill="#05FF2D"/>
<path d="M185.317 108.756C185.317 109.181 185.203 109.56 184.977 109.892C184.754 110.224 184.451 110.484 184.068 110.672C184.514 110.863 184.865 111.142 185.123 111.509C185.385 111.877 185.516 112.293 185.516 112.758C185.516 113.496 185.266 114.084 184.766 114.521C184.27 114.959 183.615 115.177 182.803 115.177C181.983 115.177 181.324 114.959 180.828 114.521C180.336 114.08 180.09 113.492 180.09 112.758C180.09 112.297 180.215 111.881 180.465 111.509C180.719 111.138 181.068 110.857 181.514 110.666C181.135 110.478 180.836 110.218 180.617 109.886C180.399 109.554 180.289 109.177 180.289 108.756C180.289 108.037 180.52 107.466 180.981 107.045C181.442 106.623 182.049 106.412 182.803 106.412C183.553 106.412 184.158 106.623 184.619 107.045C185.084 107.466 185.317 108.037 185.317 108.756ZM184.432 112.734C184.432 112.258 184.279 111.869 183.975 111.568C183.674 111.267 183.279 111.117 182.791 111.117C182.303 111.117 181.91 111.265 181.613 111.562C181.32 111.859 181.174 112.25 181.174 112.734C181.174 113.218 181.317 113.599 181.602 113.877C181.891 114.154 182.291 114.293 182.803 114.293C183.311 114.293 183.709 114.154 183.998 113.877C184.287 113.595 184.432 113.215 184.432 112.734ZM182.803 107.302C182.377 107.302 182.031 107.435 181.766 107.701C181.504 107.963 181.373 108.32 181.373 108.773C181.373 109.207 181.502 109.558 181.76 109.828C182.022 110.093 182.369 110.226 182.803 110.226C183.236 110.226 183.582 110.093 183.84 109.828C184.102 109.558 184.233 109.207 184.233 108.773C184.233 108.34 184.098 107.986 183.828 107.713C183.559 107.439 183.217 107.302 182.803 107.302ZM191.135 106.523V107.443H190.936C190.092 107.459 189.42 107.709 188.92 108.193C188.42 108.677 188.131 109.359 188.053 110.238C188.502 109.722 189.115 109.465 189.893 109.465C190.635 109.465 191.227 109.726 191.668 110.25C192.113 110.773 192.336 111.449 192.336 112.277C192.336 113.156 192.096 113.859 191.615 114.386C191.139 114.914 190.498 115.177 189.693 115.177C188.877 115.177 188.215 114.865 187.707 114.24C187.199 113.611 186.945 112.802 186.945 111.814V111.398C186.945 109.828 187.279 108.629 187.947 107.8C188.619 106.968 189.617 106.543 190.942 106.523H191.135ZM189.711 110.367C189.34 110.367 188.998 110.478 188.686 110.701C188.373 110.924 188.156 111.203 188.035 111.539V111.937C188.035 112.64 188.193 113.207 188.51 113.636C188.826 114.066 189.221 114.281 189.693 114.281C190.182 114.281 190.565 114.101 190.842 113.742C191.123 113.383 191.264 112.912 191.264 112.33C191.264 111.744 191.121 111.271 190.836 110.912C190.555 110.549 190.18 110.367 189.711 110.367Z" fill="#FF0DE7"/>
<path d="M184.397 140.523V141.443H184.197C183.354 141.459 182.682 141.709 182.182 142.193C181.682 142.677 181.393 143.359 181.315 144.238C181.764 143.722 182.377 143.465 183.154 143.465C183.897 143.465 184.488 143.726 184.93 144.25C185.375 144.773 185.598 145.449 185.598 146.277C185.598 147.156 185.358 147.859 184.877 148.386C184.401 148.914 183.76 149.177 182.955 149.177C182.139 149.177 181.477 148.865 180.969 148.24C180.461 147.611 180.207 146.802 180.207 145.814V145.398C180.207 143.828 180.541 142.629 181.209 141.8C181.881 140.968 182.879 140.543 184.203 140.523H184.397ZM182.973 144.367C182.602 144.367 182.26 144.478 181.947 144.701C181.635 144.924 181.418 145.203 181.297 145.539V145.937C181.297 146.64 181.455 147.207 181.772 147.636C182.088 148.066 182.483 148.281 182.955 148.281C183.443 148.281 183.826 148.101 184.104 147.742C184.385 147.383 184.526 146.912 184.526 146.33C184.526 145.744 184.383 145.271 184.098 144.912C183.817 144.549 183.442 144.367 182.973 144.367ZM191.035 145.31C190.809 145.58 190.537 145.797 190.221 145.961C189.908 146.125 189.565 146.207 189.19 146.207C188.697 146.207 188.268 146.086 187.901 145.843C187.537 145.601 187.256 145.261 187.057 144.824C186.858 144.383 186.758 143.896 186.758 143.365C186.758 142.795 186.865 142.281 187.08 141.824C187.299 141.367 187.608 141.017 188.006 140.775C188.404 140.533 188.869 140.412 189.401 140.412C190.244 140.412 190.908 140.728 191.393 141.361C191.881 141.99 192.125 142.849 192.125 143.939V144.256C192.125 145.916 191.797 147.129 191.141 147.894C190.484 148.656 189.494 149.047 188.17 149.066H187.959V148.152H188.188C189.082 148.136 189.77 147.904 190.25 147.455C190.731 147.002 190.992 146.287 191.035 145.31ZM189.365 145.31C189.729 145.31 190.063 145.199 190.367 144.976C190.676 144.754 190.901 144.478 191.041 144.15V143.716C191.041 143.006 190.887 142.427 190.578 141.982C190.27 141.537 189.879 141.314 189.406 141.314C188.93 141.314 188.547 141.498 188.258 141.865C187.969 142.228 187.824 142.709 187.824 143.306C187.824 143.888 187.963 144.369 188.24 144.748C188.522 145.123 188.897 145.31 189.365 145.31Z" fill="#FAFF00"/>
<defs>
<radialGradient id="paint0_radial" cx="0" cy="0" r="1" gradientUnits="userSpaceOnUse" gradientTransform="translate(119.759 94.2048) rotate(90) scale(24.4819 35.1928)">
<stop stop-color="#262525"/>
<stop offset="1" stop-color="#FC0303"/>
</radialGradient>
</defs>
</svg>
